name C:\Users\u0101727\Documents\MyRepositories\upper-imu-dc\Results\main_tracking\Case_44\FLX01_linearAccelerations_bodyFrame.mot
datacolumns 4
datarows 70
range 5.01000000 5.70000000
endheader 
time	radius_imu_x	radius_imu_y	radius_imu_z	
          5.01000000	         -1.58722979	          3.54916925	         10.54201444	
          5.02000000	         -1.54994560	          3.64940407	         10.52154732	
          5.03000000	         -1.50309923	          3.75040293	         10.50788650	
          5.04000000	         -1.50009852	          3.85022440	         10.46391051	
          5.05000000	         -1.46722545	          3.94768839	         10.43266079	
          5.06000000	         -1.44773436	          4.03813961	         10.38637464	
          5.07000000	         -1.26678432	          4.15146322	         10.23761111	
          5.08000000	         -1.93636891	          4.27772838	          9.49116725	
          5.09000000	         -1.32645648	          4.31701053	          9.88232742	
          5.10000000	         -1.55998156	          4.37602477	          9.74406782	
          5.11000000	          1.36689427	          4.12937859	          9.16669468	
          5.12000000	         -0.70655247	          4.65927442	          9.09669780	
          5.13000000	         -0.41302464	          4.73965864	          9.26386444	
          5.14000000	         -0.53863997	          4.89874923	          9.17714300	
          5.15000000	         -0.58712144	          5.03609210	          9.15014120	
          5.16000000	         -0.65357209	          5.17631287	          9.11939750	
          5.17000000	         -0.71816853	          5.31225522	          9.07240553	
          5.18000000	         -0.79207886	          5.44539262	          9.00392832	
          5.19000000	         -0.87029080	          5.57489197	          8.92957606	
          5.20000000	         -0.94989381	          5.70215593	          8.85456531	
          5.21000000	         -1.03324860	          5.82661716	          8.77960293	
          5.22000000	         -1.12092547	          5.94770413	          8.70441085	
          5.23000000	         -1.21089717	          6.06541096	          8.62828848	
          5.24000000	         -1.30270245	          6.17934054	          8.55077794	
          5.25000000	         -1.39512168	          6.28950724	          8.47206375	
          5.26000000	         -1.48624005	          6.39591713	          8.39252690	
          5.27000000	         -1.57521740	          6.49848345	          8.31150634	
          5.28000000	         -1.66180337	          6.59730626	          8.22737069	
          5.29000000	         -1.74548401	          6.69246114	          8.13887587	
          5.30000000	         -1.82540870	          6.78406710	          8.04560412	
          5.31000000	         -1.90095383	          6.87232841	          7.94754399	
          5.32000000	         -1.97192536	          6.95749878	          7.84494817	
          5.33000000	         -2.03827696	          7.03985991	          7.73847525	
          5.34000000	         -2.09997810	          7.11968551	          7.62917692	
          5.35000000	         -2.15701759	          7.19725398	          7.51835070	
          5.36000000	         -2.20942637	          7.27281642	          7.40733614	
          5.37000000	         -2.25725898	          7.34657307	          7.29725918	
          5.38000000	         -2.30049780	          7.41868949	          7.18884656	
          5.39000000	         -2.33898022	          7.48929296	          7.08236158	
          5.40000000	         -2.37240488	          7.55848550	          6.97764435	
          5.41000000	         -2.40038529	          7.62637514	          6.87427898	
          5.42000000	         -2.42253926	          7.69309368	          6.77181418	
          5.43000000	         -2.43858191	          7.75880685	          6.66991197	
          5.44000000	         -2.44836402	          7.82371120	          6.56838770	
          5.45000000	         -2.45187358	          7.88801472	          6.46716099	
          5.46000000	         -2.44923549	          7.95191588	          6.36617584	
          5.47000000	         -2.44070043	          8.01558891	          6.26536988	
          5.48000000	         -2.42662614	          8.07917548	          6.16470066	
          5.49000000	         -2.40746429	          8.14278519	          6.06418910	
          5.50000000	         -2.38374016	          8.20649981	          5.96396035	
          5.51000000	         -2.35602932	          8.27037527	          5.86425156	
          5.52000000	         -2.32493252	          8.33444057	          5.76537540	
          5.53000000	         -2.29106387	          8.39869543	          5.66767340	
          5.54000000	         -2.25503945	          8.46310392	          5.57146126	
          5.55000000	         -2.21749408	          8.52759690	          5.47704697	
          5.56000000	         -2.17908811	          8.59207051	          5.38472030	
          5.57000000	         -2.14052186	          8.65638032	          5.29472392	
          5.58000000	         -2.10253148	          8.72034213	          5.20721867	
          5.59000000	         -2.06584600	          8.78373866	          5.12223327	
          5.60000000	         -2.03117762	          8.84633171	          5.03972058	
          5.61000000	         -1.99921824	          8.90786945	          4.95964015	
          5.62000000	         -1.97066026	          8.96811075	          4.88209588	
          5.63000000	         -1.94617244	          9.02683608	          4.80732445	
          5.64000000	         -1.92634773	          9.08381282	          4.73549886	
          5.65000000	         -1.91156426	          9.13883319	          4.66653713	
          5.66000000	         -1.90189003	          9.19173036	          4.59996018	
          5.67000000	         -1.89715246	          9.24231534	          4.53489897	
          5.68000000	         -1.89699645	          9.29037387	          4.47021438	
          5.69000000	         -1.90083343	          9.33581070	          4.40480939	
          5.70000000	         -1.90803806	          9.37858422	          4.33784181	
